<?xml version="1.0" encoding="UTF-8"?>
<svg id="Layer_1" xmlns="http://www.w3.org/2000/svg" viewBox="0 0 35 36.27">
  <defs>
    <style>
      .cls-1, .cls-2 {
        fill: #fff;
      }

      .cls-2 {
        font-family: Rajdhani-Light, Rajdhani;
        font-size: 30px;
        font-weight: 300;
      }
    </style>
  </defs>
  <g>
    <path d="M17.5,34.5C8.13,34.5.5,26.87.5,17.5S8.13.5,17.5.5s17,7.63,17,17-7.63,17-17,17Z"/>
    <path class="cls-1" d="M17.5,1c9.1,0,16.5,7.4,16.5,16.5s-7.4,16.5-16.5,16.5S1,26.6,1,17.5,8.4,1,17.5,1M17.5,0C7.84,0,0,7.84,0,17.5s7.84,17.5,17.5,17.5,17.5-7.84,17.5-17.5S27.16,0,17.5,0h0Z"/>
  </g>
  <text class="cls-2" transform="translate(5.39 27.09)"><tspan x="0" y="0">IB</tspan></text>
</svg>